HIERARCHY
ROOT hips
{
  OFFSET 0 9.313263304106702 1.2146308026317778
  CHANNELS 6 Xposition Yposition Zposition Yrotation Xrotation Zrotation
  JOINT spine
  {
    OFFSET -6.402521e-31 0.5173342420023708 0
    CHANNELS 3 Yrotation Xrotation Zrotation
    JOINT chest
    {
      OFFSET 0 1.130544299341115 0
      CHANNELS 3 Yrotation Xrotation Zrotation
      JOINT upperChest
      {
        OFFSET 0 1.0863555061129995 0
        CHANNELS 3 Yrotation Xrotation Zrotation
        JOINT neck
        {
          OFFSET 0 1.3773706506454462 0
          CHANNELS 3 Yrotation Xrotation Zrotation
          JOINT head
          {
            OFFSET 0 0.7374408940073979 0
            CHANNELS 3 Yrotation Xrotation Zrotation
            JOINT leftEye
            {
              OFFSET 0.25066580148932727 0.6408406698778757 0.15963719178883284
              CHANNELS 3 Yrotation Xrotation Zrotation
              End Site
              {
                OFFSET 0.25066580148932727 0.6408406698778757 0.15963719178883284
              }
            }
            JOINT rightEye
            {
              OFFSET -0.25066576739704244 0.6408406384191823 0.15963727561643756
              CHANNELS 3 Yrotation Xrotation Zrotation
              End Site
              {
                OFFSET -0.25066576739704244 0.6408406384191823 0.15963727561643756
              }
            }
          }
        }
        JOINT leftShoulder
        {
          OFFSET 0.3761817444281191 1.0539491987447769 0
          CHANNELS 3 Yrotation Xrotation Zrotation
          JOINT leftUpperArm
          {
            OFFSET 0.8702844380000002 0 0
            CHANNELS 3 Yrotation Xrotation Zrotation
            JOINT leftLowerArm
            {
              OFFSET 2.198527310000323 0 0
              CHANNELS 3 Yrotation Xrotation Zrotation
              JOINT leftHand
              {
                OFFSET 2.146852313968281 0 0
                CHANNELS 3 Yrotation Xrotation Zrotation
                JOINT leftIndexProximal
                {
                  OFFSET 0.6585177834681599 0.07380250427007962 0.18382213159631788
                  CHANNELS 3 Yrotation Xrotation Zrotation
                  JOINT leftIndexIntermediate
                  {
                    OFFSET 0.3323021288626682 -0.009606893929485771 -0.012820872253340998
                    CHANNELS 3 Yrotation Xrotation Zrotation
                    JOINT leftIndexDistal
                    {
                      OFFSET 0.2045908926985518 -0.0071133989147997845 -0.006828784783599051
                      CHANNELS 3 Yrotation Xrotation Zrotation
                      End Site
                      {
                        OFFSET 0.2045908926985518 -0.0071133989147997845 -0.006828784783599051
                      }
                    }
                  }
                }
                JOINT leftLittleProximal
                {
                  OFFSET 0.6110054258835662 0.07380246363125398 -0.29175655876064077
                  CHANNELS 3 Yrotation Xrotation Zrotation
                  JOINT leftLittleIntermediate
                  {
                    OFFSET 0.3144281999999998 -2.5124724523095665e-9 1.8658118799974588e-7
                    CHANNELS 3 Yrotation Xrotation Zrotation
                    JOINT leftLittleDistal
                    {
                      OFFSET 0.18116185580251631 0.002815456192251098 0.0034826415518049436
                      CHANNELS 3 Yrotation Xrotation Zrotation
                      End Site
                      {
                        OFFSET 0.18116185580251631 0.002815456192251098 0.0034826415518049436
                      }
                    }
                  }
                }
                JOINT leftMiddleProximal
                {
                  OFFSET 0.6637478005691111 0.07380246480054087 0.02046981859247815
                  CHANNELS 3 Yrotation Xrotation Zrotation
                  JOINT leftMiddleIntermediate
                  {
                    OFFSET 0.3705733999999994 -2.9611069152224445e-9 9.35054791928458e-8
                    CHANNELS 3 Yrotation Xrotation Zrotation
                    JOINT leftMiddleDistal
                    {
                      OFFSET 0.22861063500000056 -1.82673876025774e-9 -1.6740782024515788e-7
                      CHANNELS 3 Yrotation Xrotation Zrotation
                      End Site
                      {
                        OFFSET 0.22861063500000056 -1.82673876025774e-9 -1.6740782024515788e-7
                      }
                    }
                  }
                }
                JOINT leftRingProximal
                {
                  OFFSET 0.6561845547265777 0.07380246406440083 -0.13588087571513918
                  CHANNELS 3 Yrotation Xrotation Zrotation
                  JOINT leftRingIntermediate
                  {
                    OFFSET 0.3437531000000005 -2.746796123886952e-9 1.4935781944558357e-7
                    CHANNELS 3 Yrotation Xrotation Zrotation
                    JOINT leftRingDistal
                    {
                      OFFSET 0.1983118991198174 -0.002467117924596085 -0.004538141969590015
                      CHANNELS 3 Yrotation Xrotation Zrotation
                      End Site
                      {
                        OFFSET 0.1983118991198174 -0.002467117924596085 -0.004538141969590015
                      }
                    }
                  }
                }
                JOINT leftThumbProximal
                {
                  OFFSET 0.09767004258864787 -0.14930060425447422 -0.07008212897521154
                  CHANNELS 3 Yrotation Xrotation Zrotation
                  JOINT leftThumbIntermediate
                  {
                    OFFSET 0.36682123028154767 -0.015768465060082004 0.28693641268151077
                    CHANNELS 3 Yrotation Xrotation Zrotation
                    JOINT leftThumbDistal
                    {
                      OFFSET 0.21091084272403915 -0.016756648201192714 0.1933767059105508
                      CHANNELS 3 Yrotation Xrotation Zrotation
                      End Site
                      {
                        OFFSET 0.21091084272403915 -0.016756648201192714 0.1933767059105508
                      }
                    }
                  }
                }
              }
            }
          }
        }
        JOINT rightShoulder
        {
          OFFSET -0.37618174442811925 1.0539491987447769 0
          CHANNELS 3 Yrotation Xrotation Zrotation
          JOINT rightUpperArm
          {
            OFFSET -0.870284438 0 0
            CHANNELS 3 Yrotation Xrotation Zrotation
            JOINT rightLowerArm
            {
              OFFSET -2.1985273100003235 0 0
              CHANNELS 3 Yrotation Xrotation Zrotation
              JOINT rightHand
              {
                OFFSET -2.1468523139682802 0 0
                CHANNELS 3 Yrotation Xrotation Zrotation
                JOINT rightIndexProximal
                {
                  OFFSET -0.6585177834681599 0.07380250427007962 0.18382213159631788
                  CHANNELS 3 Yrotation Xrotation Zrotation
                  JOINT rightIndexIntermediate
                  {
                    OFFSET -0.3323021288626682 -0.009606893929485771 -0.012820872253340998
                    CHANNELS 3 Yrotation Xrotation Zrotation
                    JOINT rightIndexDistal
                    {
                      OFFSET -0.2045908926985518 -0.0071133989147997845 -0.006828784783599051
                      CHANNELS 3 Yrotation Xrotation Zrotation
                      End Site
                      {
                        OFFSET -0.2045908926985518 -0.0071133989147997845 -0.006828784783599051
                      }
                    }
                  }
                }
                JOINT rightLittleProximal
                {
                  OFFSET -0.6110054258835662 0.07380246363125398 -0.29175655876064077
                  CHANNELS 3 Yrotation Xrotation Zrotation
                  JOINT rightLittleIntermediate
                  {
                    OFFSET -0.3144281999999998 -2.5124724523095665e-9 1.8658118799974588e-7
                    CHANNELS 3 Yrotation Xrotation Zrotation
                    JOINT rightLittleDistal
                    {
                      OFFSET -0.18116185580251631 0.002815456192251098 0.0034826415518049436
                      CHANNELS 3 Yrotation Xrotation Zrotation
                      End Site
                      {
                        OFFSET -0.18116185580251631 0.002815456192251098 0.0034826415518049436
                      }
                    }
                  }
                }
                JOINT rightMiddleProximal
                {
                  OFFSET -0.6637478005691111 0.07380246480054087 0.02046981859247815
                  CHANNELS 3 Yrotation Xrotation Zrotation
                  JOINT rightMiddleIntermediate
                  {
                    OFFSET -0.3705733999999994 -2.9611069152224445e-9 9.35054791928458e-8
                    CHANNELS 3 Yrotation Xrotation Zrotation
                    JOINT rightMiddleDistal
                    {
                      OFFSET -0.22861063500000056 -1.82673876025774e-9 -1.6740782024515788e-7
                      CHANNELS 3 Yrotation Xrotation Zrotation
                      End Site
                      {
                        OFFSET -0.22861063500000056 -1.82673876025774e-9 -1.6740782024515788e-7
                      }
                    }
                  }
                }
                JOINT rightRingProximal
                {
                  OFFSET -0.6561845547265777 0.07380246406440083 -0.13588087571513918
                  CHANNELS 3 Yrotation Xrotation Zrotation
                  JOINT rightRingIntermediate
                  {
                    OFFSET -0.3437531000000005 -2.746796123886952e-9 1.4935781944558357e-7
                    CHANNELS 3 Yrotation Xrotation Zrotation
                    JOINT rightRingDistal
                    {
                      OFFSET -0.1983118991198174 -0.002467117924596085 -0.004538141969590015
                      CHANNELS 3 Yrotation Xrotation Zrotation
                      End Site
                      {
                        OFFSET -0.1983118991198174 -0.002467117924596085 -0.004538141969590015
                      }
                    }
                  }
                }
                JOINT rightThumbProximal
                {
                  OFFSET -0.09767004258864787 -0.14930060425447422 -0.07008212897521154
                  CHANNELS 3 Yrotation Xrotation Zrotation
                  JOINT rightThumbIntermediate
                  {
                    OFFSET -0.36682123028154767 -0.015768465060082004 0.28693641268151077
                    CHANNELS 3 Yrotation Xrotation Zrotation
                    JOINT rightThumbDistal
                    {
                      OFFSET -0.21091084272403915 -0.016756648201192714 0.1933767059105508
                      CHANNELS 3 Yrotation Xrotation Zrotation
                      End Site
                      {
                        OFFSET -0.21091084272403915 -0.016756648201192714 0.1933767059105508
                      }
                    }
                  }
                }
              }
            }
          }
        }
      }
    }
  }
  JOINT leftUpperLeg
  {
    OFFSET 0.7715603 -0.3993844658041501 0
    CHANNELS 3 Yrotation Xrotation Zrotation
    JOINT leftLowerLeg
    {
      OFFSET 0 -3.529830000249343 0
      CHANNELS 3 Yrotation Xrotation Zrotation
      JOINT leftFoot
      {
        OFFSET 0 -4.154939295409685 0.004208579085223096
        CHANNELS 3 Yrotation Xrotation Zrotation
        JOINT leftToes
        {
          OFFSET 0 -0.6353414391261847 1.10414981190622
          CHANNELS 3 Yrotation Xrotation Zrotation
          End Site
          {
            OFFSET 0 -0.6015820691747853 1.10414981190622
          }
        }
      }
    }
  }
  JOINT rightUpperLeg
  {
    OFFSET -0.7715603 -0.3993844658041501 0
    CHANNELS 3 Yrotation Xrotation Zrotation
    JOINT rightLowerLeg
    {
      OFFSET 0 -3.529830000249343 0
      CHANNELS 3 Yrotation Xrotation Zrotation
      JOINT rightFoot
      {
        OFFSET 0 -4.154939295409685 0.004208579085223096
        CHANNELS 3 Yrotation Xrotation Zrotation
        JOINT rightToes
        {
          OFFSET 0 -0.6353414391261847 1.10414981190622
          CHANNELS 3 Yrotation Xrotation Zrotation
          End Site
          {
            OFFSET 0 -0.6015820691747853 1.10414981190622
          }
        }
      }
    }
  }
}
MOTION
Frames: 4
Frame Time: 0.03333333333333333
0.030772757123817097 8.19945682178844 1.377650264697041 -5.786917525177334 7.6993790913453095 -4.774922659644429 14.666390160433721 12.65282397350084 5.105021715777367 3.5000055395364686 -6.821670751200181 2.2558513546716936 0 0 0 -2.490457085821229 4.380915238553077 -3.248403491511108 -7.078276984428262 -19.662605958787243 2.1098508222414787 0 0 0 0 0 0 -8.37861694983555 2.6085742536060486 -4.465037371389793 7.77597559079776 61.49608154062403 -57.62930078997374 -72.40056022839724 -0.00003585731414911552 0.00005168180336815332 4.00818884972567 -9.368025350105603 -2.4174957208189225 0.7112326147148637 0.03665971218510239 -5.945960235004985 1.4760407628159038 0.15828407237593348 -12.224024250614972 0.3510390238999504 0.009263151451255587 -2.9730974638369707 4.983957458459763 0.4609239592457949 -5.417629137303696 -2.6207714222314893 0.19812920162766923 -12.73339966152929 1.1013908593902335 0.12249401323015585 -9.251342356215474 0.7108037017225035 0.03662128902811105 -5.930082353760747 1.4685125417509672 0.156946790981676 -12.240043867547042 0.3610371423987114 0.009357189950557081 -2.9730946928074773 0.7170015299528456 0.03725781076421616 -5.945956838282781 1.4641829408480085 0.15695551551385734 -12.224040104582404 1.1117116460432175 0.09006726706946673 -9.251709760042118 4.3756619919467585 -1.332959297392215 6.182471261394964 7.136936224024922 3.5533869207504454 1.0381536183597737 0.9426346377682923 -0.8192991331782304 2.380836325672671 4.791348629069869 1.4063646815415354 4.24844046683896 9.277745339036446 -13.168376406853113 49.91342136897462 92.44177735504675 0.00000532681170762107 -0.000001484010785047445 5.844575141207872 -13.309671129844704 -21.990107028060496 -0.4059411466366398 0.011785327244586941 3.1786379794147774 -1.9606966251881293 0.2863911845456997 16.550749165520575 -0.20377322581065727 0.002699508248151487 1.589268880850349 -0.3276594541009466 0.00743645769240593 3.178052789936824 -1.8990547614574294 0.2447813842661225 16.551394070559738 -0.2506019533245325 -0.00006370144621600798 1.5892783754285535 -0.4445816859213971 0.01392973489124591 3.1786292416982618 -1.893814829986754 0.27801070758038576 16.550886658327332 -0.23057420374938303 0.0026269393641091855 1.589269094211658 -0.36929758302193166 0.009751293205168243 3.1785448956483644 -2.0146505910753705 0.29152082856987194 16.550660777184106 -0.20656520447138688 0.0032780305660382466 1.5892678140438037 -11.114859382237505 -0.0022827020401288704 -14.455954314806384 -7.358315185486747 3.1434535098826095 -5.229834367553512 1.0807776587008537 -2.0478957802566966 -4.273452491826452 -0.6026546418972729 -46.35092285341569 10.316637876654982 167.55857437814697 54.428415445922575 168.30517124737585 2.810544647775204 1.1568253461293698 5.024706359846513 0.000003123701630421417 0.00003388222979235974 0.0000052132399521666 -5.319433307991108 -0.5501217065066731 7.005986124759775 10.150081529557522 33.19313765142464 1.60212642315342 8.16812416555967 -10.860944367460807 -9.648043396306681 0.000008931672218321508 -31.272284895621482 -0.000013501052009162276
0.009963354095816612 8.349300731312145 1.5356541042765366 -4.907313025083357 8.215585874917517 -3.0128917263830552 16.02559116856134 8.457917146217726 2.2748668227683777 3.9509348832764983 -4.13086643866276 2.0611943591237623 0 0 0 -3.1344720926485334 5.749125604839093 -3.133271782853951 -10.48465348868749 -17.623660702431042 2.866368704909357 0 0 0 0 0 0 -8.118670893154656 2.524587311252021 -3.4753604361884047 21.324031297249476 67.19080810183995 -44.351753022558626 -81.52384720376574 -0.00005448196167418103 0.000045261877864950525 8.73111279126556 -13.356429918463055 -5.337133473977272 0.8048562684638936 0.047016396165876904 -6.726431420168648 1.5679496175230814 0.17892916903647627 -13.004369251162828 0.39806116005541936 0.011866735063749112 -3.3633896371501724 5.07143555520944 0.5293460705443099 -6.195205858693195 -2.5296814792051965 0.22229101186838887 -13.513650895886192 1.1476260620298318 0.13158631137580895 -9.641537662289242 0.8044302880774096 0.04696227156757723 -6.710554003604626 1.5604387270511988 0.17750477421926683 -13.020379362859334 0.40806273522166997 0.011992581635439812 -3.3633911286805365 0.8106165173024263 0.047692668501022106 -6.726427180682722 1.556110544104858 0.17751722069793757 -13.004389216303196 1.1581737139543427 0.09779392895708672 -9.641927646164145 3.8814614377254806 -1.3286427341836975 6.122815660255148 6.426222221992109 3.4962127438196617 0.9285528467977265 0.588983709417803 -0.8535360099948787 2.347436240058215 4.200184550109125 1.2938910221869324 3.29433210348564 9.129087783199973 -10.90218377231544 47.22213197929834 112.08716924134093 0.0000017661157057405292 -0.000006528514220031282 -16.198561529880724 -3.2821256219050645 -18.76785498335598 -0.40593834526218847 0.011769257289894076 3.1786477827063004 -1.9606865990957905 0.28641271591883805 16.550747528700263 -0.20377061114541792 0.0026717845753134882 1.5892799756383547 -0.32766326933946205 0.007419894983787452 3.178062167003324 -1.8990288355819167 0.24480099455853785 16.551397344178376 -0.2506144930046479 -0.00008373409527413202 1.5892861631162292 -0.444578857881173 0.013913670772761616 3.1786390449899513 -1.8938048035079926 0.27803223893801193 16.550886658327332 -0.2305716157689506 0.0025992152743911467 1.5892801889996613 -0.369294808315134 0.00973521658047581 3.1785548882999546 -2.014640445247139 0.2915423599527326 16.550660777184106 -0.20656261648684543 0.0032503108535615207 1.5892790155124745 -13.39749510400276 0.6155411247626785 -14.943385414097419 -7.157979636052901 3.139326783769912 -5.199391752338446 1.180352783482183 -2.0551701120189607 -4.264709738395879 -10.170026162732903 -57.415083870353 15.248939539154646 149.97912533382973 76.42500811863302 145.5493087550294 0.30210587337481687 7.781496214914344 10.703990930169018 0.0000028721705098540107 0.014864427799134864 -4.4164771467119316e-8 -3.796665303112143 17.76383203172059 3.869347677476409 10.29414473427437 13.477690928422614 -2.0901486124903954 3.794573716371409 19.790337162633215 4.516671829412941 0.02422457917158956 -35.73965811462514 -1.362242314945984
-0.02089684998447245 8.541757410222832 1.5615279116201062 -3.8841884103078232 9.843340874563397 -1.7726444374907981 16.659541936714017 4.076847556351274 0.4700287777083088 4.2949237860233955 -1.1849450235807002 0.9903318797002588 0 0 0 -3.542335378103853 5.18833737340545 -2.9136849801757236 -12.65997289613155 -15.980024203660296 3.0563019583009017 0 0 0 0 0 0 -8.01317656220426 2.4860202830437337 -2.899084638830418 26.888262531408568 65.86154675500482 -40.87203536087471 -82.4169729554646 -0.0000611254041435196 0.00006181382558628945 8.95548816197831 -16.7096804762796 -3.820819696963922 0.7680434094639448 0.04280319534919536 -6.419461989193227 1.5317979417854641 0.17064529829920627 -12.697160343509314 0.3795581996488741 0.01082289337407734 -3.2097260291497745 5.0371385828880255 0.5023005200867832 -5.889376512361839 -2.5655098886975414 0.2126431400785152 -13.20648874865213 1.1294295747012826 0.12795756396772423 -9.48791262106496 0.767619777405283 0.04274186703686843 -6.403591367421776 1.5242765740457018 0.16927691990739635 -12.713156466793338 0.3895563624420353 0.010910526903839922 -3.209728160235562 0.7738072385405188 0.04344873512001374 -6.419457747089541 1.5199511666677492 0.16926615430834374 -12.69717700148178 1.1398900717909504 0.09473019792378831 -9.488309248042894 2.78155019329414 -1.3209007798178534 5.989878328435008 4.844957589728557 3.364122683585273 0.6872837547732359 -0.1980878671976411 -0.9304225803250749 2.2738244411109547 3.9371177093166474 1.2432404376431845 3.122940762578421 9.122949647790387 -6.651071804699748 48.866373450463726 121.71496913065805 -0.000004974217349411269 0.000009452065427236517 -24.568912833566454 5.599134370177418 -17.533894970157625 -0.4059224441271704 0.011781992191210738 3.178646077786049 -1.960690438875849 0.28640615245192913 16.550745891879927 -0.2037690903707375 0.0026784171625823692 1.5892717612280158 -0.32763896386887 0.007431340053065305 3.178046822712599 -1.8990458016758727 0.24479675233201292 16.551400617796897 -0.25059891178509663 -0.00008225739620262914 1.5892863764775347 -0.4445629568247785 0.013926405674185157 3.1786373400696712 -1.8938088567653784 0.2780256754758318 16.55088502150936 -0.23057009499694345 0.0026058484869821365 1.5892718679086701 -0.3692789071107602 0.009747953982997597 3.178552994020131 -2.0146444982175566 0.29153576980208806 16.550659140362296 -0.20656109571242384 0.003256940731103051 1.589270801102128 -14.688984495835449 0.9442736029223836 -15.09013433688322 -6.288708464351574 3.148813682263644 -5.081141007324256 1.6132709321935124 -2.0725847309982073 -4.233930409723457 -15.428447295647167 -57.12950022373042 17.76929378372522 34.153764049752034 72.64060911755621 24.069682799597537 -0.03037671349168645 1.1736424016992586 8.628857948708388 0.000004768451437499349 -0.15123258336223458 3.363187142490761e-7 -5.174747458477209 18.985402345555215 3.384041411258917 6.0059856916187995 24.610211983825938 -5.879382767024096 2.920723223180393 30.249474877781875 14.0837950881634 6.238665118395964e-7 2.1840498606114 0.0000040304318792630805
-0.0451557304371487 8.653308695012871 1.5438284207261352 -3.211817581298709 10.263129802206132 -1.9084671771500805 16.793346909473115 2.658943758201281 1.070874814016957 4.401656220770455 0.1470616848648169 -0.3431747739107818 0 0 0 -3.67144959835772 3.554598407576731 -3.036504462577899 -13.423889758213367 -15.719750881333365 3.415178163399283 0 0 0 0 0 0 -8.649468050822891 2.662761895134785 -4.2156004365563415 23.152870086266617 58.607157924881065 -47.49148062889171 -77.67087077551774 -0.00006566439866498767 0.00007302482874166814 2.567706630495847 -18.19545823720735 3.707497463136411 0.6332064696149492 0.02904002459322324 -5.296375763381181 1.4002958871940305 0.14223292583543823 -11.582624654507493 0.31236458156396785 0.00738334780183231 -2.652272844528071 4.91046138282269 0.40489877167909355 -4.770416833690288 -2.6958939287869192 0.17918843734655104 -12.092065001596595 1.0633361270709938 0.11525405048355866 -8.930584196442988 0.6327818810660877 0.029003415708390577 -5.28048891778287 1.392750436832501 0.14096612197894082 -11.598623650189598 0.3223597445405699 0.007464375423863727 -2.6522702859509413 0.6389818132718749 0.029572979521402216 -5.296372362866715 1.3884235910804814 0.14097311227182732 -11.582639709529257 1.0734791173452918 0.08394290818712091 -8.93093812141446 1.993566020602348 -1.3169542327564419 5.894569599519865 3.7125775496314737 3.265453028482385 0.516766314601558 -0.7618892189855546 -0.9861650427877285 2.2217526945548434 4.291898466341899 1.2995571546794822 3.2200399291545536 10.232821452585842 -1.1225991133243607 54.741422266463005 119.68247202047121 0.000015770501415224828 -0.0000049473126048053145 -21.600969392299167 6.729547625339989 -18.60286607887995 -0.40593517037114113 0.01177525955220765 3.1786433072906277 -1.9606865990957905 0.2864068194709238 16.550747528700263 -0.20378273732246469 0.0026870939290890767 1.5892789088318209 -0.32765585230234545 0.007425702979168017 3.178056412894355 -1.899038121863036 0.24479419098769664 16.551402254606117 -0.24932822700092433 -0.0000905107021228783 1.578757052666981 -0.44457570968544935 0.013919670533835499 3.1786345695742035 -1.8938050168373288 0.2780263424943459 16.550886658327332 -0.2305837285845748 0.0026145250450475043 1.5892790155124745 -0.3692916067303653 0.0097412213440394 3.178550010409495 -2.014640658561372 0.29153646350215573 16.550660777184106 -0.20657471598157556 0.0032656202073451184 1.5892779487059396 -13.729417900503806 0.7566622394885059 -14.494078115850849 -5.484440141325255 2.7845357578829235 -4.802224067858603 2.002390333835542 -2.27383340214317 -4.117789798758495 -14.095059920950781 -51.45757431994209 14.967760608145161 12.84490328967293 45.984190668268816 1.2897172093144196 -0.12863901843926398 -5.152064066989035 1.9438143918395354 -8.09842885986449e-7 -0.3074689512413369 -4.642291092784105e-7 -6.721985344201828 17.795359959304054 1.9773553821439198 13.110359288079756 43.64611974526353 0.5179418969304388 4.117890603530983 26.690858779795207 14.23255968052597 -0.000001934384586239955 -0.47736691027852757 0.0000035835515611348674
